<?xml version="1.0" standalone="no"?>
<!DOCTYPE svg PUBLIC "-//W3C//DTD SVG 20010904//EN"
 "http://www.w3.org/TR/2001/REC-SVG-20010904/DTD/svg10.dtd">
<svg version="1.0" xmlns="http://www.w3.org/2000/svg"
 width="85.000000pt" height="85.000000pt" viewBox="0 0 85.000000 85.000000"
 preserveAspectRatio="xMidYMid meet">
<metadata>
Created by potrace 1.14, written by Peter Selinger 2001-2017
</metadata>
<g transform="translate(0.000000,85.000000) scale(0.100000,-0.100000)"
fill="#000000" stroke="none">
<path d="M485 754 c75 -69 95 -81 95 -57 0 39 -26 66 -84 89 -33 13 -62 24
-65 24 -3 -1 21 -26 54 -56z"/>
<path d="M431 725 c20 -19 129 -62 129 -51 0 13 -80 61 -113 66 l-39 8 23 -23z"/>
<path d="M588 710 c2 -22 6 -40 9 -40 3 0 18 9 35 21 28 20 28 22 12 40 -9 10
-27 19 -38 19 -19 0 -21 -5 -18 -40z"/>
<path d="M162 685 c-145 -33 -195 -52 -112 -41 25 3 103 8 175 11 l130 5 -70
-24 -70 -24 46 -1 c42 -1 171 22 209 36 21 9 28 10 47 12 9 0 14 4 10 7 -8 8
-189 54 -207 53 -8 -1 -79 -16 -158 -34z m225 -31 c-3 -3 -12 -4 -19 -1 -8 3
-5 6 6 6 11 1 17 -2 13 -5z"/>
<path d="M648 686 c-22 -20 -24 -27 -15 -39 15 -19 207 -139 207 -129 0 4 -22
30 -49 57 -37 38 -61 53 -97 62 -49 12 -48 12 24 6 39 -3 72 -3 72 1 0 4 -75
48 -110 63 -3 1 -17 -8 -32 -21z"/>
<path d="M404 621 c-109 -25 -113 -28 -216 -106 -58 -44 -102 -81 -98 -83 24
-9 440 193 440 214 0 5 0 5 -126 -25z"/>
<path d="M491 605 c-30 -19 -62 -42 -71 -52 -21 -22 -111 -193 -102 -193 10 1
153 126 167 147 31 46 76 133 68 132 -4 0 -32 -16 -62 -34z"/>
<path d="M594 633 c-32 -6 -86 -140 -150 -371 -30 -112 -54 -205 -52 -207 2
-2 15 17 28 43 14 26 60 111 103 190 l78 143 -5 97 -6 97 25 -105 c13 -58 35
-139 48 -180 l25 -75 1 124 c1 121 1 124 -28 160 -27 34 -63 97 -44 76 84 -91
102 -125 159 -283 31 -89 59 -160 61 -158 4 3 -33 228 -53 328 -4 20 -23 38
-77 71 -89 54 -88 54 -113 50z"/>
</g>
</svg>
