<svg width="12" height="11" viewBox="0 0 12 11" fill="none" xmlns="http://www.w3.org/2000/svg">
<path d="M5.99996 10.833C5.99996 10.833 0.166626 7.4921 0.166626 3.43528C0.166745 2.71826 0.409674 2.02341 0.854111 1.46887C1.29855 0.91433 1.91706 0.534328 2.60449 0.393472C3.29191 0.252616 4.00582 0.3596 4.62484 0.696236C5.24386 1.03287 5.72977 1.57838 5.99996 2.24001L5.99995 2.24002C6.27015 1.57838 6.75606 1.03288 7.37507 0.696239C7.99409 0.359602 8.708 0.252616 9.39543 0.393472C10.0829 0.534327 10.7014 0.914329 11.1458 1.46887C11.5902 2.02341 11.8332 2.71826 11.8333 3.43528C11.8333 7.4921 5.99996 10.833 5.99996 10.833Z" fill="#82367B"/>
</svg>
