<svg width="14" height="14" viewBox="0 0 14 14" fill="none" xmlns="http://www.w3.org/2000/svg">
<path d="M7.00033 12.833C7.00033 12.833 1.16699 9.4921 1.16699 5.43528C1.16711 4.71826 1.41004 4.02341 1.85448 3.46887C2.29891 2.91433 2.91742 2.53433 3.60485 2.39347C4.29228 2.25262 5.00619 2.3596 5.62521 2.69624C6.24422 3.03287 6.73014 3.57838 7.00033 4.24001L7.00032 4.24002C7.27051 3.57838 7.75642 3.03288 8.37544 2.69624C8.99446 2.3596 9.70837 2.25262 10.3958 2.39347C11.0832 2.53433 11.7017 2.91433 12.1462 3.46887C12.5906 4.02341 12.8335 4.71826 12.8337 5.43528C12.8337 9.4921 7.00033 12.833 7.00033 12.833Z" stroke="#333333" stroke-width="2" stroke-linecap="round" stroke-linejoin="round"/>
</svg>
