<svg width="22" height="20" viewBox="0 0 22 20" fill="none" xmlns="http://www.w3.org/2000/svg">
<path d="M11 19C11 19 1 13.2727 1 6.31819C1.0002 5.08901 1.41665 3.89784 2.17855 2.94719C2.94044 1.99655 4.00074 1.34512 5.17919 1.10365C6.35764 0.862185 7.58148 1.04559 8.64265 1.62268C9.70383 2.19977 10.5368 3.13492 11 4.26915L11 4.26916C11.4632 3.13493 12.2962 2.19977 13.3573 1.62268C14.4185 1.04559 15.6424 0.862186 16.8208 1.10365C17.9993 1.34512 19.0596 1.99655 19.8215 2.94719C20.5833 3.89784 20.9998 5.08901 21 6.31819C21 13.2727 11 19 11 19Z" stroke="#C8A06C" stroke-width="2" stroke-linecap="round" stroke-linejoin="round"/>
</svg>
