<svg width="42" height="42" viewBox="0 0 42 42" fill="none" xmlns="http://www.w3.org/2000/svg">
<path d="M27 1H15C5 1 1 5 1 15V27C1 34.56 3.28 38.7 8.72 40.24C9.16 35.04 14.5 30.9399 21 30.9399C27.5 30.9399 32.84 35.04 33.28 40.24C38.72 38.7 41 34.56 41 27V15C41 5 37 1 27 1ZM21 25.34C17.04 25.34 13.84 22.12 13.84 18.16C13.84 14.2 17.04 11 21 11C24.96 11 28.16 14.2 28.16 18.16C28.16 22.12 24.96 25.34 21 25.34Z" fill="#82367B" stroke="#82367B" stroke-width="2" stroke-linecap="round" stroke-linejoin="round"/>
</svg>
